<svg id="網頁設計" xmlns="http://www.w3.org/2000/svg" viewBox="0 0 90 90"><defs><style>.cls-1{fill:none;stroke:#eee;stroke-miterlimit:10;stroke-width:6px;}</style></defs><title>logo</title><path class="cls-1" d="M45,40.26a20.5,20.5,0,0,1,20.59-5.78,20.62,20.62,0,0,0-41.18,0A20.5,20.5,0,0,1,45,40.26Z"/><path class="cls-1" d="M24.35,35.65c0-.4,0-.78.06-1.17A20.63,20.63,0,1,0,45,68.45a20.55,20.55,0,0,1-5.53-12.93A20.64,20.64,0,0,1,24.35,35.65Z"/><path class="cls-1" d="M65.59,34.48c0,.39.06.77.06,1.17A20.64,20.64,0,0,1,50.53,55.52,20.55,20.55,0,0,1,45,68.45a20.63,20.63,0,1,0,20.59-34Z"/><path class="cls-1" d="M45,40.26a20.53,20.53,0,0,0-5.59,14.09c0,.4,0,.78.06,1.17a20.24,20.24,0,0,0,11.06,0c0-.39.06-.77.06-1.17A20.53,20.53,0,0,0,45,40.26Z"/></svg>